<?xml version="1.0" encoding="UTF-8"?><svg id="Lockups" xmlns="http://www.w3.org/2000/svg" viewBox="0 0 516.07 196.33"><defs><style>.cls-1{fill:#f5f5f5;}.cls-2{fill:#252525;}.cls-3{fill:#bf3827;}</style></defs><rect class="cls-3" x="20" y="139" width="392.5" height="45" rx="7.45" ry="7.45"/><g><path class="cls-1" d="M37.78,172.73c-2.52,0-4.76-.38-6.17-1.07l.88-2.33c.98,.44,3.02,.94,5.42,.94,3.34,0,5.07-1.39,5.07-3.62s-1.23-3.15-5.29-4.63c-3.84-1.39-5.79-3.18-5.79-6.68s2.93-5.73,7.18-5.73c2.46,0,4.5,.5,6.2,1.26l-.91,2.42c-1.57-.66-3.4-1.2-5.35-1.2-2.8,0-4.25,1.32-4.25,3.28,0,2.27,1.26,3.18,4.91,4.54,3.97,1.48,6.14,2.96,6.14,6.49,0,4-3.12,6.33-8.03,6.33Z"/><path class="cls-1" d="M64.53,156.54c0,3.72-2.24,7.12-8.98,7.12h-2.58v8.76h-2.83v-22.49h5.95c5.89,0,8.44,2.42,8.44,6.61Zm-11.56-4.19v8.88h2.27c4.28,0,6.36-1.26,6.36-4.57,0-2.9-1.8-4.31-5.76-4.31h-2.87Z"/><path class="cls-1" d="M68.69,172.42v-22.49h12.57v2.49h-9.73v7.02h8.44v2.46h-8.44v8.03h10.42l-.94,2.49h-12.31Z"/><path class="cls-1" d="M100.31,156.32c0,3.59-2.24,5.23-4.5,6.02l6.17,10.08h-3.31l-5.45-9.29h-4.47v9.29h-2.83v-22.49h6.2c5.57,0,8.19,2.11,8.19,6.39Zm-11.56-3.94v8.35h3.37c3.65,0,5.26-1.45,5.26-4.28s-1.73-4.06-5.42-4.06h-3.21Z"/><path class="cls-1" d="M118.6,165.46h-8.91l-2.68,6.96h-2.87l8.79-22.58h2.55l8.76,22.58h-2.93l-2.71-6.96Zm-3.37-9.32c-.19-.5-.85-2.58-1.07-3.37-.31,1.29-.72,2.65-.98,3.37l-2.55,6.8h7.12l-2.52-6.8Z"/><path class="cls-1" d="M142.17,172.42l-12.03-18.68h-.13c.09,1.48,.25,3.81,.25,6.11v12.57h-2.61v-22.49h3.28l12,18.61h.13c-.06-1.01-.22-3.87-.22-5.92v-12.69h2.65v22.49h-3.31Z"/><path class="cls-1" d="M156.05,172.42v-20h-7.02l.94-2.49h15.9v2.49h-6.99v20h-2.83Zm3.43,2.21c-.28,1.13-1.39,3.4-2.52,4.75h-1.51v-.38c.47-1.04,1.13-3.31,1.29-4.66h2.74v.28Z"/><path class="cls-1" d="M178.79,165.46h-8.91l-2.68,6.96h-2.87l8.79-22.58h2.55l8.76,22.58h-2.93l-2.71-6.96Zm-3.37-9.32c-.19-.5-.85-2.58-1.07-3.37-.31,1.29-.72,2.65-.98,3.37l-2.55,6.8h7.12l-2.52-6.8Z"/><path class="cls-1" d="M197.88,161.17c0,5.57,2.58,9.07,7.75,9.07,1.95,0,4.35-.44,5.79-1.13l.82,2.17c-2.52,1.17-4.19,1.45-7.02,1.45-6.9,0-10.33-4.5-10.33-11.59s3.84-11.53,10.8-11.53c2.3,0,4.31,.38,6.02,1.23l-.94,2.49c-1.39-.63-3.09-1.23-5.1-1.23-4.82,0-7.78,3.43-7.78,9.07Z"/><path class="cls-1" d="M215.95,149.93h2.83v19.97h10.36l-.94,2.52h-12.25v-22.49Z"/><path class="cls-1" d="M249.21,164.48c0,4.66-2.8,8.25-8.76,8.25-5.61,0-8.57-3.31-8.57-8.31v-14.49h2.83v14.58c0,3.65,1.95,5.76,5.89,5.76s5.79-2.39,5.79-5.79v-14.55h2.8v14.55Z"/><path class="cls-1" d="M252.47,175.97c1.32-.63,2.27-1.7,2.27-4.76v-21.29h2.83v21.29c0,3.94-1.32,5.83-4.19,7.18l-.91-2.43Z"/><path class="cls-1" d="M261.29,159.63h7.62l.95,2.46h-7.62l-.94-2.46Z"/><path class="cls-1" d="M288.28,172.42l-12.03-18.68h-.13c.09,1.48,.25,3.81,.25,6.11v12.57h-2.61v-22.49h3.28l12,18.61h.13c-.06-1.01-.22-3.87-.22-5.92v-12.69h2.65v22.49h-3.31Z"/><path class="cls-1" d="M309.46,165.46h-8.91l-2.68,6.96h-2.87l8.79-22.58h2.55l8.76,22.58h-2.93l-2.71-6.96Zm-3.37-9.32c-.19-.5-.85-2.58-1.07-3.37-.31,1.29-.72,2.65-.98,3.37l-2.55,6.8h7.12l-2.52-6.8Z"/><path class="cls-1" d="M332.9,156.54c0,3.72-2.24,7.12-8.98,7.12h-2.58v8.76h-2.83v-22.49h5.95c5.89,0,8.44,2.42,8.44,6.61Zm-11.56-4.19v8.88h2.27c4.28,0,6.36-1.26,6.36-4.57,0-2.9-1.79-4.31-5.76-4.31h-2.87Z"/><path class="cls-1" d="M346.78,172.73c-7.02,0-10.39-4.66-10.39-11.62s3.37-11.53,10.42-11.53,10.33,4.57,10.33,11.56-3.59,11.59-10.36,11.59Zm0-2.46c5.1,0,7.37-3.46,7.37-9.13s-2.27-9.07-7.34-9.07-7.43,3.4-7.43,9.07,2.33,9.13,7.4,9.13Z"/><path class="cls-1" d="M363.93,161.17c0,5.57,2.58,9.07,7.75,9.07,1.95,0,4.35-.44,5.79-1.13l.82,2.17c-2.52,1.17-4.19,1.45-7.02,1.45-6.9,0-10.33-4.5-10.33-11.59s3.84-11.53,10.8-11.53c2.3,0,4.31,.38,6.02,1.23l-.94,2.49c-1.39-.63-3.09-1.23-5.1-1.23-4.82,0-7.78,3.43-7.78,9.07Z"/><path class="cls-1" d="M394.86,165.46h-8.91l-2.68,6.96h-2.87l8.79-22.58h2.55l8.76,22.58h-2.93l-2.71-6.96Zm-3.37-9.32c-.19-.5-.85-2.58-1.07-3.37-.31,1.29-.72,2.65-.98,3.37l-2.55,6.8h7.12l-2.52-6.8Z"/></g><g><path class="cls-2" d="M46.28,20.05c9.96,0,15.16,2.63,15.16,9.9,0,4.7-2.69,7.95-7.61,8.84v.28c5.04,.84,8.95,3.36,8.95,9.57,0,7.27-5.32,11.36-13.88,11.36h-14.04V20.05h11.42Zm1.01,17.01c6.83,0,8.95-2.24,8.95-6.55s-2.96-6.16-9.74-6.16h-6.6v12.7h7.39Zm-7.39,18.69h8.06c7.05,0,9.46-3.02,9.46-7.5,0-4.2-2.46-6.99-9.85-6.99h-7.67v14.49Z"/><path class="cls-2" d="M74.82,21.9c0,2.13-1.34,3.13-2.85,3.13-1.62,0-2.91-1.01-2.91-3.13s1.29-3.13,2.91-3.13c1.51,0,2.85,.95,2.85,3.13Zm-.45,38.1h-4.92V30.01h4.92v29.99Z"/><path class="cls-2" d="M90.31,60.56c-4.2,0-7.11-.67-9.4-1.9l1.45-3.8c1.96,.84,5.2,1.73,8.06,1.73,4.98,0,7.11-1.73,7.11-4.42,0-2.24-1.51-3.58-7.39-5.82-5.82-2.24-9.29-4.03-9.29-8.95s4.53-7.95,11.25-7.95c3.64,0,6.77,.78,9.57,2.01l-1.51,3.97c-2.57-1.12-5.48-1.96-8.39-1.96-4.03,0-6.21,1.4-6.21,3.64,0,2.52,1.96,3.52,7.72,5.71,5.71,2.13,9.01,4.08,9.01,8.9,0,5.82-4.64,8.84-11.97,8.84Z"/><path class="cls-2" d="M132.22,42.99v2.96h-20.54c.17,6.77,3.58,10.41,9.57,10.41,2.91,0,5.88-.56,8.23-1.46l1.4,3.69c-3.08,1.34-5.76,1.96-9.85,1.96-8.56,0-14.44-5.32-14.44-15.33s5.32-15.78,13.26-15.78,12.37,5.37,12.37,13.54Zm-20.42-.95h15.28c-.06-5.09-2.29-8.56-7.27-8.56-4.7,0-7.5,3.19-8,8.56Z"/><path class="cls-2" d="M156.22,29.79l-.62,4.53c-.95-.22-2.24-.39-3.25-.39-4.64,0-8.73,4.03-8.73,10.07v16h-4.92V30.01h4.03l.56,5.48h.22c1.9-3.3,4.98-6.04,9.18-6.04,1.12,0,2.52,.11,3.52,.34Z"/><path class="cls-2" d="M166.07,21.9c0,2.13-1.34,3.13-2.85,3.13-1.62,0-2.91-1.01-2.91-3.13s1.29-3.13,2.91-3.13c1.51,0,2.85,.95,2.85,3.13Zm-.45,38.1h-4.92V30.01h4.92v29.99Z"/><path class="cls-2" d="M172.33,45.17c0-11.08,5.99-15.72,14.04-15.72,3.02,0,6.15,.73,7.95,1.62l-1.57,4.08c-1.79-.67-4.42-1.4-6.49-1.4-5.99,0-8.84,3.86-8.84,11.36s2.91,11.19,8.56,11.19c2.52,0,4.7-.56,6.66-1.45l1.51,3.92c-1.68,1.06-4.7,1.79-8.11,1.79-8,0-13.71-4.76-13.71-15.39Z"/><path class="cls-2" d="M221.85,39.58v20.42h-3.58l-.95-4.25h-.22c-2.63,3.3-5.04,4.81-10.07,4.81-5.43,0-9.46-2.8-9.46-8.9s4.59-9.29,14.38-9.57l5.09-.17v-1.79c0-4.98-2.29-6.66-6.21-6.66-3.13,0-5.99,1.12-8.45,2.29l-1.51-3.69c2.63-1.4,6.32-2.57,10.24-2.57,7.27,0,10.74,3.08,10.74,10.07Zm-9.29,5.93c-7.5,.28-9.9,2.41-9.9,6.21,0,3.36,2.24,4.87,5.48,4.87,5.04,0,8.84-2.74,8.84-8.56v-2.69l-4.42,.17Z"/><path class="cls-2" d="M264.37,47.63h-15.83l-4.76,12.37h-5.09l15.61-40.12h4.53l15.56,40.12h-5.2l-4.81-12.37Zm-5.99-16.56c-.34-.9-1.51-4.59-1.9-5.99-.56,2.29-1.29,4.7-1.74,5.99l-4.53,12.09h12.65l-4.48-12.09Z"/><path class="cls-2" d="M276.96,45.06c0-10.3,4.92-15.61,12.37-15.61,4.64,0,7.44,1.96,9.29,4.42h.34c-.11-.95-.34-3.3-.34-4.42v-10.07l4.92-1.9V60h-3.97l-.73-4.03h-.22c-1.79,2.57-4.64,4.59-9.34,4.59-7.44,0-12.31-5.2-12.31-15.5Zm21.71,.95v-.9c0-7.44-2.01-11.58-8.67-11.58-5.32,0-7.95,4.53-7.95,11.64s2.63,11.3,8,11.3c6.32,0,8.62-3.47,8.62-10.46Z"/><path class="cls-2" d="M307.73,30.01h5.26l6.38,17.68c.9,2.46,2.07,6.1,2.41,7.95h.22c.39-1.85,1.68-5.54,2.52-7.95l6.38-17.68h5.26l-11.41,29.99h-5.65l-11.36-29.99Z"/><path class="cls-2" d="M363.74,42.99v2.96h-20.54c.17,6.77,3.58,10.41,9.57,10.41,2.91,0,5.88-.56,8.23-1.46l1.4,3.69c-3.08,1.34-5.76,1.96-9.85,1.96-8.56,0-14.44-5.32-14.44-15.33s5.32-15.78,13.26-15.78,12.37,5.37,12.37,13.54Zm-20.42-.95h15.28c-.06-5.09-2.29-8.56-7.27-8.56-4.7,0-7.5,3.19-8,8.56Z"/><path class="cls-2" d="M395.52,40.47v19.53h-4.87v-19.19c0-4.81-2.13-7.22-6.71-7.22-6.66,0-8.78,3.86-8.78,10.85v15.56h-4.92V30.01h3.97l.73,4.08h.28c1.96-3.13,5.65-4.64,9.46-4.64,7.16,0,10.86,3.3,10.86,11.02Z"/><path class="cls-2" d="M415.54,55.8l1.34,3.52c-1.06,.67-3.19,1.23-5.48,1.23-4.7,0-8.78-2.01-8.78-9.29V24.97l4.92-1.85v6.88h8.67v3.8h-8.67v17.35c0,3.64,1.96,5.37,4.7,5.37,1.12,0,2.63-.39,3.3-.73Z"/><path class="cls-2" d="M426.68,21.9c0,2.13-1.34,3.13-2.85,3.13-1.62,0-2.91-1.01-2.91-3.13s1.29-3.13,2.91-3.13c1.51,0,2.85,.95,2.85,3.13Zm-.45,38.1h-4.92V30.01h4.92v29.99Z"/><path class="cls-2" d="M442.18,60.56c-4.2,0-7.11-.67-9.4-1.9l1.46-3.8c1.96,.84,5.2,1.73,8.06,1.73,4.98,0,7.11-1.73,7.11-4.42,0-2.24-1.51-3.58-7.39-5.82-5.82-2.24-9.29-4.03-9.29-8.95s4.53-7.95,11.25-7.95c3.64,0,6.77,.78,9.57,2.01l-1.51,3.97c-2.57-1.12-5.48-1.96-8.39-1.96-4.03,0-6.21,1.4-6.21,3.64,0,2.52,1.96,3.52,7.72,5.71,5.71,2.13,9.01,4.08,9.01,8.9,0,5.82-4.64,8.84-11.97,8.84Z"/><path class="cls-2" d="M472,55.8l1.34,3.52c-1.06,.67-3.19,1.23-5.48,1.23-4.7,0-8.79-2.01-8.79-9.29V24.97l4.92-1.85v6.88h8.67v3.8h-8.67v17.35c0,3.64,1.96,5.37,4.7,5.37,1.12,0,2.63-.39,3.3-.73Z"/><path class="cls-2" d="M499.86,39.58v20.42h-3.58l-.95-4.25h-.22c-2.63,3.3-5.04,4.81-10.07,4.81-5.43,0-9.46-2.8-9.46-8.9s4.59-9.29,14.38-9.57l5.09-.17v-1.79c0-4.98-2.29-6.66-6.21-6.66-3.13,0-5.99,1.12-8.45,2.29l-1.51-3.69c2.63-1.4,6.32-2.57,10.24-2.57,7.27,0,10.74,3.08,10.74,10.07Zm-11.02-13.49c-5.54,0-8.28-2.91-8.56-7.5h3.02c.34,3.08,2.24,3.53,5.65,3.53,2.91,0,5.26-.62,5.65-3.53h3.08c-.39,4.48-3.47,7.5-8.84,7.5Zm1.73,19.42c-7.5,.28-9.9,2.41-9.9,6.21,0,3.36,2.24,4.87,5.48,4.87,5.04,0,8.84-2.74,8.84-8.56v-2.69l-4.42,.17Z"/><path class="cls-2" d="M33.08,105.06c0-10.3,4.92-15.61,12.37-15.61,4.64,0,7.44,1.96,9.29,4.42h.34c-.11-.95-.34-3.3-.34-4.42v-10.07l4.92-1.9v42.53h-3.97l-.73-4.03h-.22c-1.79,2.57-4.64,4.59-9.34,4.59-7.44,0-12.31-5.2-12.31-15.5Zm21.71,.95v-.9c0-7.44-2.01-11.58-8.67-11.58-5.32,0-7.95,4.53-7.95,11.64s2.63,11.3,8,11.3c6.32,0,8.62-3.47,8.62-10.46Z"/><path class="cls-2" d="M92.55,102.99v2.96h-20.54c.17,6.77,3.58,10.41,9.57,10.41,2.91,0,5.88-.56,8.23-1.46l1.4,3.69c-3.08,1.34-5.76,1.96-9.85,1.96-8.56,0-14.44-5.32-14.44-15.33s5.32-15.78,13.26-15.78,12.37,5.37,12.37,13.54Zm-20.42-.95h15.28c-.06-5.09-2.29-8.56-7.27-8.56-4.7,0-7.5,3.19-8,8.56Z"/><path class="cls-2" d="M109.84,120v-3.8l21.04-31.67h-20.37v-4.48h26.47v3.8l-21.04,31.67h21.6v4.48h-27.7Z"/><path class="cls-2" d="M148.72,81.9c0,2.13-1.34,3.13-2.85,3.13-1.62,0-2.91-1.01-2.91-3.13s1.29-3.13,2.91-3.13c1.51,0,2.85,.95,2.85,3.13Zm-.45,38.1h-4.92v-29.99h4.92v29.99Z"/><path class="cls-2" d="M181.74,120h-4.03l-.73-3.97h-.22c-1.96,3.13-5.65,4.53-9.51,4.53-7.22,0-10.91-3.3-10.91-10.91v-19.64h4.98v19.3c0,4.81,2.13,7.16,6.66,7.16,6.66,0,8.84-3.86,8.84-10.85v-15.61h4.92v29.99Z"/><path class="cls-2" d="M212.23,99.58v20.42h-3.58l-.95-4.25h-.22c-2.63,3.3-5.04,4.81-10.07,4.81-5.43,0-9.46-2.8-9.46-8.9s4.59-9.29,14.38-9.57l5.09-.17v-1.79c0-4.98-2.29-6.66-6.21-6.66-3.13,0-5.99,1.12-8.45,2.29l-1.51-3.69c2.63-1.4,6.32-2.57,10.24-2.57,7.27,0,10.74,3.08,10.74,10.07Zm-9.29,5.93c-7.5,.28-9.9,2.41-9.9,6.21,0,3.36,2.24,4.87,5.48,4.87,5.04,0,8.84-2.74,8.84-8.56v-2.69l-4.42,.17Z"/><path class="cls-2" d="M255.92,99.58v20.42h-3.58l-.95-4.25h-.22c-2.63,3.3-5.04,4.81-10.07,4.81-5.43,0-9.46-2.8-9.46-8.9s4.59-9.29,14.38-9.57l5.09-.17v-1.79c0-4.98-2.29-6.66-6.21-6.66-3.13,0-5.99,1.12-8.45,2.29l-1.51-3.69c2.63-1.4,6.32-2.57,10.24-2.57,7.27,0,10.74,3.08,10.74,10.07Zm-9.29,5.93c-7.5,.28-9.9,2.41-9.9,6.21,0,3.36,2.24,4.87,5.48,4.87,5.04,0,8.84-2.74,8.84-8.56v-2.69l-4.42,.17Z"/><path class="cls-2" d="M287.14,120.56c-4.48,0-8.45-.67-10.97-1.9l1.57-4.14c1.73,.78,5.37,1.68,9.62,1.68,5.93,0,9.01-2.46,9.01-6.43s-2.18-5.6-9.4-8.23c-6.83-2.46-10.3-5.65-10.3-11.86s5.2-10.18,12.76-10.18c4.36,0,8,.9,11.02,2.24l-1.62,4.31c-2.8-1.17-6.04-2.13-9.51-2.13-4.98,0-7.55,2.35-7.55,5.82,0,4.03,2.24,5.65,8.73,8.06,7.05,2.63,10.91,5.26,10.91,11.53,0,7.11-5.54,11.25-14.27,11.25Zm3.58,3.36c-.5,2.01-2.46,6.04-4.48,8.45h-2.69v-.67c.84-1.85,2.01-5.88,2.29-8.28h4.87v.5Z"/><path class="cls-2" d="M329.22,99.58v20.42h-3.58l-.95-4.25h-.22c-2.63,3.3-5.04,4.81-10.07,4.81-5.43,0-9.46-2.8-9.46-8.9s4.59-9.29,14.38-9.57l5.09-.17v-1.79c0-4.98-2.29-6.66-6.21-6.66-3.13,0-5.99,1.12-8.45,2.29l-1.51-3.69c2.63-1.4,6.32-2.57,10.24-2.57,7.27,0,10.74,3.08,10.74,10.07Zm-9.29,5.93c-7.5,.28-9.9,2.41-9.9,6.21,0,3.36,2.24,4.87,5.48,4.87,5.04,0,8.84-2.74,8.84-8.56v-2.69l-4.42,.17Z"/><path class="cls-2" d="M363.96,104.95c0,10.24-4.92,15.61-12.37,15.61-4.64,0-7.55-2.01-9.29-4.36h-.34c.11,1.29,.34,3.53,.34,4.92v12.31h-4.92v-43.42h4.03l.67,4.08h.22c1.79-2.57,4.48-4.64,9.34-4.64,7.39,0,12.31,5.15,12.31,15.5Zm-21.65-.95v.95c0,7.39,2.01,11.53,8.56,11.53,5.43,0,8-4.87,8-11.58s-2.57-11.3-8.11-11.3c-6.1,0-8.34,3.41-8.45,10.41Z"/><path class="cls-2" d="M382.53,115.8l1.34,3.52c-1.06,.67-3.19,1.23-5.48,1.23-4.7,0-8.79-2.01-8.79-9.29v-26.3l4.92-1.85v6.88h8.67v3.8h-8.67v17.35c0,3.64,1.96,5.37,4.7,5.37,1.12,0,2.63-.39,3.3-.73Z"/><path class="cls-2" d="M412.24,102.99v2.96h-20.54c.17,6.77,3.58,10.41,9.57,10.41,2.91,0,5.88-.56,8.23-1.46l1.4,3.69c-3.08,1.34-5.76,1.96-9.85,1.96-8.56,0-14.44-5.32-14.44-15.33s5.32-15.78,13.26-15.78,12.37,5.37,12.37,13.54Zm-20.42-.95h15.28c-.06-5.09-2.29-8.56-7.27-8.56-4.7,0-7.5,3.19-8,8.56Z"/><path class="cls-2" d="M440.83,99.58v20.42h-3.58l-.95-4.25h-.22c-2.63,3.3-5.04,4.81-10.07,4.81-5.43,0-9.46-2.8-9.46-8.9s4.59-9.29,14.38-9.57l5.09-.17v-1.79c0-4.98-2.29-6.66-6.21-6.66-3.13,0-5.99,1.12-8.45,2.29l-1.51-3.69c2.63-1.4,6.32-2.57,10.24-2.57,7.27,0,10.74,3.08,10.74,10.07Zm-9.29,5.93c-7.5,.28-9.9,2.41-9.9,6.21,0,3.36,2.24,4.87,5.48,4.87,5.04,0,8.84-2.74,8.84-8.56v-2.69l-4.42,.17Z"/></g></svg>